<svg id="visual" viewBox="0 0 900 600" width="900" height="600" xmlns="http://www.w3.org/2000/svg" xmlns:xlink="http://www.w3.org/1999/xlink" version="1.1"><path d="M0 163L82 163L82 145L164 145L164 199L245 199L245 277L327 277L327 157L409 157L409 187L491 187L491 199L573 199L573 187L655 187L655 247L736 247L736 241L818 241L818 271L900 271L900 271L900 0L900 0L818 0L818 0L736 0L736 0L655 0L655 0L573 0L573 0L491 0L491 0L409 0L409 0L327 0L327 0L245 0L245 0L164 0L164 0L82 0L82 0L0 0Z" fill="#ec3326"></path><path d="M0 433L82 433L82 427L164 427L164 415L245 415L245 481L327 481L327 415L409 415L409 499L491 499L491 427L573 427L573 475L655 475L655 421L736 421L736 439L818 439L818 451L900 451L900 481L900 269L900 269L818 269L818 239L736 239L736 245L655 245L655 185L573 185L573 197L491 197L491 185L409 185L409 155L327 155L327 275L245 275L245 197L164 197L164 143L82 143L82 161L0 161Z" fill="#9f153a"></path><path d="M0 601L82 601L82 601L164 601L164 601L245 601L245 601L327 601L327 601L409 601L409 601L491 601L491 601L573 601L573 601L655 601L655 601L736 601L736 601L818 601L818 601L900 601L900 601L900 479L900 449L818 449L818 437L736 437L736 419L655 419L655 473L573 473L573 425L491 425L491 497L409 497L409 413L327 413L327 479L245 479L245 413L164 413L164 425L82 425L82 431L0 431Z" fill="#4c142d"></path></svg>